<svg xmlns="http://www.w3.org/2000/svg" xmlns:xlink="http://www.w3.org/1999/xlink" viewBox="0 0 1920 1080"><defs><style>.cls-1{fill:none;}.cls-2{fill:#774224;}.cls-3{clip-path:url(#clip-path);}.cls-4{fill:#e89256;}.cls-5{opacity:0.4;}.cls-6{fill:#fff;}</style><clipPath id="clip-path" transform="translate(34.23 14.85)"><path class="cls-1" d="M1807.81,39.16l-37.7,12L1640,0l-74.92,53.83-13.27-17.95s-123.93-5.83-140-16.78l-65,23.66-2,23.91L1266.78,19.1h-42.61l-36.08,74.61-29.55-50.95-33.43-6.88L1024.77,19.1,991.08,42.76,884.55,19.1,848.82,57.94,803.34,87,776.23,59.16l-49.63-8S662.19,28.62,644,35.88L559.89,66.15l-44-54.2L433.2,75.3,409.3,57.94,338.16,19.1H320.57L262.17,87,244.48,42.76s-12.67-4.39-42.19,0L143.64,66.67,77,42.76,28,87S-10.84,892.07,3,981.61l52.94,41.44h60.58l96.82-56.68s21.16,35.49,39.81,48.13l90,17.22s17.64,3.14,37.64-17.22l91.6-20.87,49.32,20.87,19.58-20.87s104.19-15.55,135.84,9l17,30.41,78.18-58.24,69.2,56.94s-.89,12.57,50.2,0l68.1-59.48,69.3,50.81,78.31-20.44s84.2-31.54,116.79-21l98.25,41.44,75.41-29.42,83.78-21.39,47.43,72.92,98.38-30.66,19.07,8.55s66.37-31.45,82.82-56.68l46.5,15.24,35.4-26.94,26.5-654.14s1-217.35-13-241.37Z"/></clipPath></defs><g id="Layer_2" data-name="Layer 2"><g id="Layer_2-2" data-name="Layer 2"><path class="cls-2" d="M1829.8,51.87l-22-12.72L1792.1,63.86,1662,12.72l-74.92,53.83L1573.78,48.6s-16.37-12.75-28-13.45c-35.47-2.14-99.89,4.91-112-3.34l-65,23.67-2,23.91-97-59.24-23.6,11.66-36.08,74.61-29.55-50.94-21.77-12.33L1147.1,48.6,1046.76,31.81l-33.69,23.67L906.55,31.81,870.82,70.66,825.33,99.72l-27.1-27.84L775.77,59.15l-27.18,4.71S684.18,41.33,666,48.6L581.88,78.86l-44-54.19-22.1-12.52L455.2,88,431.29,70.66,360.16,31.81H342.57l-58.4,67.91L266.48,55.48S252.4,43.37,244.77,43.15c-9.72-.29-14,11.37-20.49,12.33L165.64,79.39,99,55.48,50,99.72S42,933.61,55.77,1023.15l22.13,12.62h60.57l97.3-56.62s4.67,21.33,17,36c5.44,6.47,16.63,8.2,22.34,12.07l90,17.21s17.63,3.14,37.63-17.21l91.61-20.88,49.31,20.88,19.58-20.88s104.19-15.54,135.85,9l-5.34,17.82,22.31,12.59,78.18-58.24,52.51,48.65,16.69,8.28s-.89,12.58,50.21,0L981.76,985l47,38.2,22.29,12.62,78.31-20.44s84.2-31.55,116.8-21l98.25,41.45,75.41-29.43L1503.6,985l26.17,60.2,21.26,12.72,98.39-30.65,19.06,8.55s66.38-31.46,82.83-56.68l46.49,15.23,35.41-26.94,26.49-654.13s1-217.36-13-241.37Z" transform="translate(34.23 14.85)"/><g class="cls-3"><rect class="cls-4" width="1920" height="1080"/><g class="cls-5"><path class="cls-6" d="M1155.57,160l-.55.13V367.31c0,4.6,0,9.21-.07,13.68-.18,17.16-.18,34.16-.11,50.66q0,5.55.06,11.09t.17,11c0,4.76,0,9.65,0,14.54v14.35q0,3.58,0,7.23-.06,20.88,0,41.75c0,2.32,0,4.64-.06,7,.84,34.58.84,69.58.44,104.28,0,2.26,0,4.55-.07,6.84q0,31.21-.28,62.42v21.51c0,2.39,0,4.78,0,7.13-.23,7.4-1.23,14.4.77,21.4,0-7,0-14-.2-21.49V712q.08-32.41.12-64.66c0-2.35,0-4.7.1-7,1-33.14-1-67.14-.2-100.42.09-2.37.08-4.76.08-7.15q0-25.08-.1-50.22V468.16c0-4.89,0-9.78,0-14.53,0-3.87.07-7.65.08-11.37s0-7.38,0-11c0-17.1,0-33.1-.22-50.38.07-4.49.07-9.09.07-13.7Zm251.9,742.64c.38-4.72.73-9.4,1-14.16s.58-9.54.82-14.33c2.89-57.37,1.18-115.21,3.06-167.31-6.22,30.81-1.33,86.16-3.93,127.24-.19-20-.34-36.19-.49-52.42l-1,0q-.27,46.5-.52,93c0,4.42-.05,8.85-.09,13.2.45,9.29-1.55,17.29-.11,26.57,0,4.5-.07,8.93-.09,13.36l-.08,13.28,1.43.53V917.07c0-3.52,0-6.65,0-9.13S1407.48,903.63,1407.47,902.67ZM1557.1,174.73v13.72c-.33,8.7-.33,17.7,0,26.75,0,2.24,0,4.45,0,6.66v13.08c0,2.17,0,4.33,0,6.5.72,25.71-1.28,51.71,1.72,77.71,2-25-1-51,.82-75.52.13-2.28.17-4.57.19-6.85q.73-61.69,1.46-123.4c-.5-.51-1-1-1.48-1.54-.23,33.74-.46,67.47-.74,108.46-.19-4.54-.36-8.67-.53-12.6s-.32-7.57-.47-11.12-.3-7.05-.45-10.64ZM226.91,265q.43-20.73.86-41.47c0-2,.08-4,.16-6-1.16-40.38,2.84-81.38.84-121.38-1-25-2-51-1-76.9,0-2.34-.08-4.62-.17-6.9q-.51-13.66-1.23-27.2l-1.34.81.3,26.22c0,2.18.05,4.36,0,6.58-3.62,23.39,4.38,46.39-1.62,69.39,6-15,2-31,3-46,2,17-1,35,0,51,4,41-2,83,.5,124.11-.05,2.08-.1,4.13-.12,6.17ZM1364.56-13.39l-1.14,3.54q.27,34.95.52,69.89c0,2.33-.12,4.68-.3,7-1.87,16.09.13,31.09,3.13,47.09,1,6-2,11-2,15.8-.19,2.31-.22,4.63-.2,7q.45,59.4.89,118.8l.39-.1q.32-58,.64-116c0-2.41,0-4.83.13-7.25,7.2-22.16-6.8-43.16-.16-65.22a72.67,72.67,0,0,0,.47-7.31l.36-65.27L1366-6.15V60.57a60.69,60.69,0,0,1-.37,6.12c-1.83,4.46.17,9.46-1.83,13.46,0-5,2-10,1.26-15,.18-2.2.16-4.38.14-6.56ZM201,653.2c-.24-.05.76.95.76.95,1-19,1-37,1.8-56.27.11-2.27.24-4.54.29-6.88.34-14.72.62-29.43.74-44.11,0-2.1,0-4.19,0-6.29,1.13-9.45,4.13-18.45,2.13-27.45-4-14-6-26-3.57-40.14a39,39,0,0,0,.6-7.2q-.31-13.81-.67-27.6c-.06-2.3-.11-4.6-.17-6.9-1.19-14.16.81-27.16-1.19-41.16,0,14,0,27-.25,40.92,0,2.37,0,4.68,0,7v27.73c0,2.32-.17,4.67-.43,7.08-2.29,14.28-.29,28.28,2.71,43.28,2,9-2,17-2.28,25.9v48.52c-1.72,18.58,1.28,36.58-.19,55.51Q201.15,649.65,201,653.2ZM989.58,503.3c-2.81,28.85,1.19,58.85,0,87.39V646c0,2.34-.08,4.69-.15,7.06,1.3,14.1-1.7,29.1,1.3,43.1,0-14,0-29-.08-42.61.07-2.36.12-4.71.18-7.07V591c0-2.3,0-4.64.15-7,2.75-26.87-3.25-53.87-.25-80.87,1,4-2,7-1,11,0-3,0-5-.17-8.43C989.58,503.76,989.58,502.75,989.58,503.3Zm692.65,170.77c1.54,12.08-.46,23.08-1.46,35.08-2,21,3,41-.3,62.42-.06,2.32,0,4.65,0,7,.08,28,.54,55.89,1,83.82,0,2.33,0,4.66,0,7-1.66,18.79,2.34,36.79,1.34,55.79,1-19-3-37-.45-55.84.09-2.33.16-4.66.16-7V778.45c0-2.33,0-4.66.06-7a231.32,231.32,0,0,0-.77-47.31c-3-15,2-29,.86-43.17Q1682.42,677.51,1682.23,674.07ZM1248.48-3.55c-.34-.5-.67-1-1-1.51v65.4c-2.71,22.81,1.29,45.81.14,68.88-.07,2.39-.1,4.79-.14,7.21v22.09c-.8-12.56-1.06-16.66-1.32-20.75-.39,1.2-.77,2.4-1.15,3.61q1.26,58.37,2.53,116.74c.31-.57.62-1.14.94-1.71V133.65c0-2.41.09-4.81.17-7.22,1.12-19.28-.88-38.28-.44-57.71.08-2.45.14-4.87.27-7.28Zm363.24,593.87-1.51-1.5v34.91c0,2.32,0,4.65-.1,7-.34,42.41.66,83.41.23,125.62-.1,2.32-.13,4.65-.13,7v14c-3.44,20.86,3.56,41.86.56,62.86,6-21-4-41,1-62.45V763.82c0-2.31,0-4.63.11-6.94.94-41.73-.06-82.73-.29-124.85.1-2.35.18-4.69.18-7ZM558.36,606.55c3.41-24.4-.59-49.4.62-73.34.09-2.18.16-4.36.16-6.55v-6.55c-.37-41-.37-83-.37-123q-1.5-73.5-.22-146.85c0-2.25.08-4.49.15-6.72s.15-4.45.27-6.68q0-6.63,0-13.26l-1.09,1.14c0,4.88,0,9.77-.11,14.67,0,2.06,0,4.11,0,6.17s0,4.12,0,6.2c0,49.33-1,98.33-1,147.33,1,39,2,77,1.24,116.32-.09,2.33-.15,4.65-.15,7s0,4.64-.05,7c-1,23.74,1,46.74.57,70.41C558.41,602.07,558.4,604.32,558.36,606.55ZM1804.91,246.68c1.37-9.49,2.34-41.85,2.83-83.17,0-1.33,0-2.69.1-4.09,3.93-29.27-4.07-59.27.18-87.88,0-1.51,0-3,0-4.55-.13-22.75-.38-45.27-.78-66-.24,25.17-.48,51-.72,77.23-.17,2.31-.36,4.71-.59,7.16-2.14,26.78,3.86,52.78-.23,80l-.07,7.36C1805.38,197.3,1805.15,222,1804.91,246.68Zm-300.48,196c.34.45-.66-.55-.66-.55,0,34,0,68,.15,102.44-.05,2.23-.08,4.43-.07,6.59l0,6.46v57.74c0,2.41,0,4.81-.06,7.27,1,26.5-2,53.5,1,79.5V622.73c.07-2.45.07-4.85.07-7.25v-57.6q0-3.25,0-6.5c0-2.16,0-4.31,0-6.54-.09-31.69-.09-64.69-.5-96.64C1504.37,446.37,1504.4,444.53,1504.43,442.7ZM746,341.55c-.63-.38-1.24-.78-1.85-1.23-.06,2.5-.13,5-.18,7.33s-.07,4.68-.09,7l-.07,14.05-.15,27.1,0,6.78c-.81,60.59.19,121.59-1.16,182.56a38.27,38.27,0,0,0,.3,5,30.93,30.93,0,0,0,1,5c0-4,0-8,.05-12.08.95-57.92-.05-114.92,1.23-172.57,0-2,.05-3.94.07-5.92q.21-17.79.43-35.57c.05-4.61.11-9.22.19-13.74,0-2.25.08-4.51.1-6.78S745.91,343.9,746,341.55Zm901.33,85a96.17,96.17,0,0,0,1.1-14.41q0-3.54,0-7.06t0-7.06c1.37-23.88-2.63-46.88,0-70.6,0-2.36,0-4.71,0-7.06V306.24c0-2.35.07-4.7.16-7.06-.85-47,.15-94-.16-141.22V143.84l-1.18-.49v14.36c-1.51,48.44-.51,95.44.1,143-.1,2.36-.1,4.72-.1,7.08v14.14c0,2.36,0,4.71-.08,7.07-.43,23.2,1.57,47.2.08,70v27.63ZM212.61,100.62c13.16,45.53,1.16,97.53,5.55,145.55,0,2.32,0,4.6,0,6.82l.15,13.36v-12c0-2,0-4,0-6.06.42-43.11.42-86.11,2.42-129.11,1-7-5-14-6-21-2-15,5-30,3-45,2,15-6,29-6,44,1,11,5,23,6,35,0-10,0-19-4.05-27.74A37.19,37.19,0,0,1,212.61,100.62ZM995.86,434.69c1.91-6.54-.09-14.54,1.22-21.53,0-2.23,0-4.49.07-6.73-.38-18.28-.38-37.28-.49-55.55l0-6.93q-.25-38.1-.52-76.19c0-2.31,0-4.62,0-6.83-.3-11.78-.3-22.78-.27-34.73l0-6.93-.14-20.78-1.19.68.17,27.72c0,2.31,0,4.62,0,7,.16,7.25.16,14.25.17,20.86,0,2.22,0,4.46,0,6.77q.26,41.57.5,83.14l0,6.93c-1.26,14.84.41,29.32.61,44.24,0,3.73,0,7.48-.2,11.23,0,7.08,0,13.08.08,20.56C995.85,430,995.86,432.33,995.86,434.69Zm878.47,230.8-2.7-175.08C1871.48,550.14,1869.26,612.59,1874.33,665.49Zm-1786.16,57,1,.36c0-2.41,0-4.82,0-7.22.75-15.72.37-31.58.06-47.33,0-2.25,0-4.5,0-6.75-1.56-66.36,4.44-133.36-.56-199.36,1,68,0,135-.52,203.34q.21,3.09.41,6.2c1,14.48,1.83,29-.44,43.53Q88.19,718.84,88.17,722.45Zm1337.7-83.59c-4.1,19.29-.1,38.29-1.17,57,0,2.28,0,4.59,0,6.91q.29,24.6.58,49.22c0,2.34.06,4.68.06,7.07.44,16.11.44,33.11.61,49.18l.08,7q.38,31.63.76,63.28l1.11-1q-.36-31.69-.71-63.4c0-2.35,0-4.7,0-7-.38-16-.38-33-.63-49.33,0-2.4,0-4.75,0-7.1q-.27-24.66-.55-49.31c0-2.28,0-4.59.06-6.87-.21-16.4-.21-32.4-.3-48.58C1425.71,643.61,1425.82,641.23,1425.87,638.86ZM157.43,840.25l1,.45V716.46c0-2.31,0-4.61.07-6.91,2.26-21.4.26-41.4-1.74-62.4,0,21,4,41,.74,62.29-.08,2.29-.08,4.59-.08,6.88ZM603.05-7.69c-2.87,69.23-2.12,135.85,0,203.38ZM887.23-9.6l-1.64-.9q.23,28,.47,56l.12,14c-.41,18.66,1.59,36.66.58,56.12-.07,4.53,0,9.2,0,13.86l.24,28,1.63-1.41-.24-27.61c0-4.6,0-9.14.06-13.62.31-18.68-1.69-36.68-.64-55.41l-.12-13.8Q887.47,18,887.23-9.6ZM801.44,333.09c3.33-4.94-.67-9.94,1.84-14.88.1-4.6.13-9.15.15-13.7l.78-157,.06-6.81-1.36-.7c0,2.29,0,4.59,0,6.88l-1,158.3L801.82,319Q801.55,326,801.44,333.09ZM1256,484.9c-.18-6.75-.18-14.75,0-21.41,0-3.57-.18-7.14-.29-10.71-.21-7.14-.3-14.28.09-21.38.12-4.51.29-9,.29-13.56V355.13c0-2.15.06-4.3.15-6.46,2.59-19.52-1.41-40.52-.41-60.52-2,21,2,42-1.14,63.41-.1,2.11-.13,4.22-.17,6.31-.13,8.38-.21,16.56-.2,24.72s.09,16.39.2,24.63q.09,6.18.2,12.42c-.67,12.38.29,25.6,1,38.62.23,4.34.24,8.69.2,13,0,2.25,0,4.51.06,6.79S1255.93,482.59,1256,484.9Zm-39.89-32.85a43.32,43.32,0,0,0-.66,10.1c.11,3.39.51,6.74.66,10.12a36.6,36.6,0,0,1-.79,10.27c-.18,4.75-.18,9.5-.18,14.26,0,2.13,0,4.27,0,6.41a39.11,39.11,0,0,1-1.26,6.94,29.85,29.85,0,0,0-1,7c0,34,7,69,2.53,102.65a45.58,45.58,0,0,0-.21,5.35l.66-.68a42.4,42.4,0,0,1,.27-5.39c3.75-34.93-1.25-69.93-2.08-104.6a56,56,0,0,1,.49-6.3,48.6,48.6,0,0,1,1.32-6.36v-6.45q0-7.19.23-14.35t.16-14.36c0-2.39,0-4.83,0-7.28S1216.13,454.49,1216.06,452.05Zm566.39-58.71c-1.84,92.75-1.29,129.15,1.86,160.67V432.91l-.85-.3v84.65l-1-.59ZM776,155.6l-1.45.49.88,134.26.09,13.42c.29,13.38.29,26.38.29,39.38,3-13,0-27,1.19-40.22l-.09-13.39ZM668.5,804.86c-.73-.71-.73-.71-1.73-1.71A221.92,221.92,0,0,1,667.6,831c0,2.26,0,4.51-.07,6.79s0,4.55,0,6.87c-2.74,22.53,2.26,44.53.39,67.21a49.67,49.67,0,0,0,0,5.33c.72,12.87,2.15,25.65.37,38.87l.09,13.92.36,55.71,1.11-.53q-.15-27.6-.29-55.21c0-4.6,0-9.2,0-13.75.63-11.51.19-23-.25-34.53-.07-1.91-.14-3.83-.18-5.74,2.68-22.75-3.32-46.75-.24-70.21,0-2.3,0-4.57,0-6.82s.07-4.5.09-6.74q.06-6.72-.11-13.51C668.78,814.08,668.64,809.49,668.5,804.86ZM287.27,267.48l-1.1,1.5v6.65q0,3.33-.15,6.67a246.7,246.7,0,0,0,.75,48.85c2,10-1,21-.32,31-.05,2.21-.11,4.42-.26,6.63q0,3.31,0,6.63.09,12.81.25,25.57c0,4.25.11,8.5,0,12.76-.76,21.46,1.24,42.46,1.24,63.46,3-19-1-37,.08-56.34.09-4.64.24-9.28.22-13.92l-.2-34.86c.05-2.33.09-4.66.15-7-.25-12.89,2.75-25.89-.25-39.89a184.56,184.56,0,0,1-.53-43.73c.09-2.32.09-4.65.07-7ZM1298.05,716.32l.72.76V659.46c0-14.31,0-29.31,0-43.36,0-2.33,0-4.7,0-7.08s0-4.78,0-7.2c0-34.67,0-70.67-.09-105.69q0-3.3,0-6.62c-.08-15.45-.32-30.91-.9-46.36a425.92,425.92,0,0,1,1.1,47.25q-.07,3.38-.17,6.75c-3.93,35,2.07,69-.61,104.2,0,2.47,0,4.86,0,7.22s0,4.73,0,7c-.22,14.53-.22,28.53.06,43.25v57.45Zm-296.9-558.46.81,0V136.41c.1-2.39.18-4.75.3-7.06,1.51-24.2-1.49-48.2-.44-71.8.06-2.32.14-4.64.14-7V-13.9l-.81-.37V50.28c-1.38,25.87.62,52.87.29,79-.12,2.32-.18,4.71-.29,7.1ZM1736,551.26l-1.08,1q.22,46.77.44,93.54c0,2.4,0,4.74-.07,7,.44,14.31.44,29.31.31,43.38l0,7.2q.19,39.58.38,79.15l1.25-.64q-.24-43.24-.47-86.5c0-2.4,0-4.93.05-7.46-.11-11.82-.11-23.82-.33-35.88,0-2.31,0-4.71,0-7.12Zm-1048.51-383,1.39.22V155.12c.85-22-.15-45-.21-67.07.15-4.51.21-9,.21-13.58V19.06c-1,18-1.32,36.13-1.41,54.34,0,4.55,0,9.11-.2,13.67-1.54,23.08,1.46,45.08.36,67.82Q687.63,161.58,687.53,168.22ZM1329.42,53.41l-1.6.75,0,6.8,0,6.8c-1.11,20.39,2.89,41.39.35,61.3-.06,2.2,0,4.47,0,6.74q.12,27.21.25,54.42c0,2.27,0,4.53,0,6.76,1.35,7.17-2.65,13.17.35,20.17,0-7,0-14,.65-20.7V135.14c0-2.27,0-4.5.11-6.71,1.24-18.28-.76-36.28-.27-54.54.09-2.3.16-4.59.16-6.86ZM58.91,509.72c-.14.43-1.14-.57-1.14-.57,0,21,3,43,.23,64.42-.06,2.18-.07,4.32-.08,6.45l0,6.41,0,6.41c.91,6.31-1.09,12.31-2.09,18.31,0,20,4,41,1.57,60.5.1,2.21.21,4.42.3,6.64.48,11.05.79,22.08-.16,33-.08,2.46-.14,4.89-.24,7.35l-.11,21.62.92.38.14-21.6c.08-2.44.14-4.87.22-7.33.68-13.26,0-26.38-.44-39.52a36.18,36.18,0,0,1,.25-6.83c1.55-3.16.55-7.16,1.55-11.16,1-18-5-36-.94-54.43.13-2.08.15-4.21.16-6.35l.08-12.8,0-6.4c2.66-19,.66-39-.12-58.25C59,513.87,58.92,511.79,58.91,509.72Zm-78.69,20.14c.55.29.55,1.29,1.55,1.29a76,76,0,0,1-.43-28.43c.16-4.8.18-9.5.21-14.19q.3-56.38.59-112.76l-1.86-.57V487.26c0,4.67,0,9.33-.11,14.09s-.19,9.53-.18,14.3S-19.91,525.15-19.78,529.86ZM1014,586.63c-.27-.48.73.52.73.52,0-38,0-76-.2-113.64V445.23c0-4.71,0-9.42.1-14.05a73.18,73.18,0,0,1-.19-9.28c0-1.58.1-3.17.15-4.75.14-5,1.14-9-.86-14,0,3,0,6,.13,9.22-.12,3.18-.14,6.37-.15,9.52s0,6.26,0,9.27c-.08,4.63-.08,9.34-.08,14v28.28c-.85,34.66.15,70.66.34,106.08C1014,581.92,1014,584.27,1014,586.63ZM1050.72,471l-1,.68.13,28.23c0,2.35,0,4.71,0,7.07-.62,24.55.26,49,.74,73.43,0,2.22.08,4.44.08,6.79-.83,23-.83,45,2.17,68,0-25-2-51-.84-75.7l-.12-6.66c-.39-22.18-1-44.39-.87-66.56,0-2.35,0-4.7,0-7.05ZM1356,494.12c-3.25,32-.25,63-2.57,94.85-.1,2-.15,4.14-.2,6.25q-.29,12.66-.51,25.53c0,2.32-.07,4.65-.12,7,.15,19.36.15,38.36.6,57.29.09,2.47.19,4.94.3,7.43s.24,5,.37,7.49l0-7.38c0-2.44,0-4.87.07-7.27-.24-21.2-.24-43.2.42-64.18l0-6.94.1-13.79,0-6.85c2.16-31.44-1.84-62.44,1.73-93C1356.31,498.43,1356.19,496.28,1356,494.12Zm-77.57,229.2,1.64.89.09-21c0-2.36,0-4.72.1-7.11.24-25.49.36-51.24.43-77q0-3.51.15-7c-.09-23-.09-47-.09-70-3,23,1,47-1.59,69.55-.09,2.32-.16,4.64-.16,7,0,25.51.25,51-.25,76.57-.06,2.39-.1,4.77-.16,7.15Zm-98.7-558.42c-3.21,18-3.73,38.52-3.61,59.34q0,3.48.07,7a181.8,181.8,0,0,1,.32,20.87c0,2.27,0,4.56.08,6.85q.08,6.85.05,13.56l1.71,2.22.09-6.62.08-6.63c.23-13.3.23-27.3.5-40.21l.09-6.83C1179.33,198.43,1179.54,182,1179.75,164.9ZM21.53,219.12l-1.11-.22c.37,79.86.75,159.72,1.11,237.07Zm1562.15,122c.16,34.44.31,66.61.46,98.27l.07,13.54c-.44,4.19-.44,9.19-.44,13.19,5-4,1-9,2-14.44,0-4.58.12-9.2.21-13.84C1586.55,405.4,1587.79,371.79,1583.68,341.15ZM283.06,910.51l-.73,2v122.92c.18.31.35.63.53,1,.21-7.67.43-15.34.76-27.18.5,10.41.71,14.6,1.26,25.92v-105l-.54-.16-.42,56.14-.86-.56ZM1486.74-7.27,1485-4.17l2.66,142.48,1.44-2.36Q1487.92,64.34,1486.74-7.27ZM-33.72,310.86l-.51-.88V453.22l.51.64Zm753.28,110c3.21-11.69-.79-23.69,1.73-35.34.08-1.88.08-3.76.09-5.64l0-5.64c2.36-24.07.36-47.07-1.64-71.07,0-8,2-15,2-22.72.06-1.9.07-3.81.08-5.74s0-3.84,0-5.78l.05-9.4,0-9.41-1.12-.4-.07,9.5-.08,9.5q-.24,2.93-.39,5.85t-.22,5.83c-3.35,20.77,2.65,41.77,1.65,62.77,0,11-1,21-1.9,31.94l0,5.7c0,1.9,0,3.8-.14,5.71,1.09,9.65-2.91,18.65-.32,28.64C719.42,417,719.49,419,719.56,420.84Zm214.8,280.51c.41-.2.41.8.41.8,1-19-1-38,.53-56.54V625.52c0-2.23,0-4.52.05-6.82.42-44.55.42-88.55-.21-133.83.09-2.23.16-4.46.16-6.7v-6.69l-.94,0v7.2c0,2.39-.11,4.8-.19,7.2.6,45.3.6,91.3.23,136.59,0,2.47,0,4.86,0,7.26v14.39c-.59,17.06-1.59,33.06-.06,50C934.32,696.48,934.34,698.92,934.36,701.35Zm51.1,313.6,1.37-1.21v-18.8c1.94-22.79-2.06-45.79.56-68.89.13-1.88.21-3.77.25-5.66.37-18.91-3.4-38.06-1-57.14.15-2.23.18-4.49.2-6.75v-6.83l-1.37.24v6.88c0,2.27-.08,4.54-.24,6.8-1.21,18.8,1.37,37.9.92,57.22,0,1.94-.12,3.87-.23,5.81-3.14,20.53.86,42.53-.3,63.19-.08,2.06-.15,4.13-.15,6.23ZM517.28,331.37c.49-.22.49.78.49.78,3-29-3-59-.11-87.73,0-1.87,0-3.75,0-5.64s0-3.78-.05-5.68q.2-7.2.2-14.26V207.05c0-7.9,0-15.9,0-23.63,0-1.92,0-3.87,0-5.83V148.13c0-4.71,0-9.35,0-14s0-9.45,0-14.24V91.56l-.5,0v28.19c0,4.73,0,9.48,0,14.16V177.3c0,2,0,3.88,0,5.76-1.47,8.09,2.53,16.09,0,23.61v11.75c0,4.7,0,9.42-.18,14.21,0,1.85,0,3.71,0,5.57s0,3.72.07,5.59c-2.35,27.36,2.65,55.36.53,82.71C517.53,328.15,517.43,329.76,517.28,331.37ZM95.87,534.6c-2.1,41.55-1.1,82.55-.3,124.48,0,2.32.1,4.63.17,6.94.51,11.45,1,22.88,1,34.13.71-10,.66-19.88.38-29.73-.05-2-.12-3.94-.19-5.91-.19-41.36-1.19-82.36-.63-123.22C96.18,539.08,96,536.85,95.87,534.6Zm1583.4,84.72,1.63.78V481c-.13-8.85-.13-18.85-.13-27.85,0,9,0,19-.63,27.77l-.09,13.84ZM334.17,1052.56l1.8.59V910.65l-.74-.47Q334.69,981.37,334.17,1052.56Zm1110.12-711.1a9.49,9.49,0,0,1,1.48,3.69c0-31,2-61,.91-92.25.09-2.42.12-4.79.14-7.16s.07-4.78.12-7.2.1-4.86.13-7.29c-.3-9.1-.3-19.1.15-28.43,0-2.31.08-4.62.15-6.87l.4-35.57-.88-.82-.5,35c-.1,2.2-.16,4.47-.2,6.74-.42,43.87-1.42,88.87-2.08,133.19Q1444.17,338,1444.29,341.46ZM1153.47,531c-.09,2.18-.2,4.36-.31,6.54-1.39,32.64-5.39,65.64-2.68,98.67.15,2.14.33,4.3.54,6.46s.47,4.34.75,6.51c0-2.32,0-4.63,0-6.94s.06-4.56.11-6.8c.87-32.26-.13-65.26,1.51-97.71C1153.42,535.48,1153.44,533.23,1153.47,531ZM595.22,802.31l-1.23.85q.09,12.26.19,24.52l.09,12.27c-2.5,22.2,1.5,43.2.73,64.85-.08,3.57-.21,7.15-.18,10.73q.07,10.74.24,21.45c0,2.18,0,4.41,0,6.64q.13,16.73.26,33.44l1.22-.84q-.13-16.72-.26-33.44c0-2.23,0-4.45,0-6.61.09-3.6.08-7.21,0-10.81s-.18-7.19-.31-10.78c-.26-25.43-1.26-50.43-.53-75.48l-.1-12.26ZM1557.78,977l1.62.88v-40.7c1.37-23-.63-45-.19-67.85.08-2.25.13-4.51.19-6.77V842.2c-.63-9.05,2.37-18.05-.63-27.05,0,9,0,18-.09,27.14l0,6.73-.09,13.47c-.07,2.24-.13,4.49-.23,6.73-2.54,21.93,3.46,44.93-.26,67.35l0,6.74Q1557.89,960.14,1557.78,977ZM162.59,449.36c.18.79,1.18,2.79,1.18,3.79v-32c4,11,1,23,1.5,35.44-.07,2.33-.13,4.65-.13,6.94v13.73c0,2.29,0,4.57-.08,6.87-1.29,21,.71,41,.71,62,3-21-3-42,0-63.17.06-2.31.06-4.62.06-6.93V462.19c-1-24,2-49-1-73-2,18-2,36-2,54.08C162.75,445.27,162.68,447.32,162.59,449.36ZM727.67,726.77l.74-.71V683.41c1.36-19.26-.64-38.26-.06-56.79.06-4.82.06-9.56.06-14.3V593.66c-.64-26.51,3.36-54.51-1.64-81.51,3,27,0,55,.9,81.79v33q.15,28.83,0,57.05v42.79ZM1270.15-5.93l-.77.44.38,47.67c0,2.27-.06,4.55-.13,6.83.14,27.14,2.14,55.14.87,81.75,0,2.22,0,4.49,0,6.76l.16,20.43,1.72-1.28q-.14-10.15-.28-20.32c0-2.26,0-4.47,0-6.66.65-26.54-1.35-54.54-1.38-81.41.06-2.26.1-4.52.07-6.78ZM1418,345.26l-.87.07v25.09c0,4.18,0,8.36-.14,12.56-1.23,21.17.77,42.17.3,62.71-.15,4.18-.16,8.36-.16,12.54,0,2.35,0,4.7-.13,6.91-.12,1.9-.2,3.79-.25,5.68s-.06,3.75,0,5.62c.06,17.71,2.06,34.71.43,52.35l.87,0c0-2.35.06-4.81.26-7.47a373,373,0,0,0-.39-39.4c0-1.75-.05-3.53-.09-5.39-.07-3.73,0-7.48.21-11.27,0-2.33,0-4.69,0-7,0-4.18,0-8.36.17-12.55,1.59-21.47-1.41-41.47-.31-62.72.14-4.19.14-8.37.14-12.55ZM848.32,898.5c.45-15.35.45-31.35.39-46.48.07-2,.08-4.11.08-6.2s0-4.15,0-6.22c.06-2.47.13-4.93.13-7.33v-116c.11-2.26.18-4.53.24-6.79-.4-4.33,1.6-9.33.6-13.33-2,4,0,9-1.49,13.34-.14,4.47-.25,9-.25,13.48V831.2c0,2.26,0,4.5-.06,6.81q-.06,5.44-.09,10.87c.89,14.27-1.11,28.27.41,42.72C848.31,893.89,848.32,896.2,848.32,898.5Zm-377-358.75c-1.51,5.4.49,11.4-.45,16.22-.05,4.72-.07,9.32-.07,13.9V666c0,9.14,0,19.14,0,28.14,2-10-1-19,.48-29.33V567.89c0-4.61,0-9.3.07-14S471.33,544.41,471.28,539.75ZM1185.86,425a11.55,11.55,0,0,1-.09-1.84c0,9,0,17,0,26.34,0,1.71,0,3.44,0,5.2s0,3.51,0,5.27,0,3.51-.06,5.26q.07,37.89.07,75.87c0,2.3,0,4.61,0,6.91,0,32.15,0,65.15,0,97.15,0-32,1-64,1.1-96.3l-.12-6.87c-.51-25.2-1.41-50.45-.7-75.65.17-1.51.31-3.05.42-4.63s.22-3.15.31-4.74.18-3.17.25-4.7c-.26-7.11-.26-13.11-1-20.42C1186,429.56,1185.92,427.27,1185.86,425ZM450,1048.18l.84,2.12V920.79L450,921Zm31.6-313.55c-1.84,8.52.16,18.52-.61,27.56-.13,4.57-.26,9.14-.26,13.71v61.65c0,2.27-.05,4.54-.09,6.79.12,20.81.12,40.81.18,61.65-.05,2.32-.09,4.64-.09,6.92v13.7l.87-.05V912.85c0-2.28,0-4.59.1-6.87.06-20.83.06-40.83-.1-61.64V775.82c0-4.57.14-9.14.27-13.73s.17-9.16.11-13.74S481.8,739.2,481.61,734.63Z" transform="translate(34.23 14.85)"/><path d="M1155.57,160V367.17c0,4.61,0,9.21-.07,13.7.27,17.28.27,33.28.22,50.38,0,3.63,0,7.29,0,11s0,7.5-.08,11.37c0,4.75,0,9.64,0,14.53V482.5q.06,25.15.1,50.22c0,2.39,0,4.78-.08,7.15-.82,33.28,1.18,67.28.2,100.42,0,2.32-.08,4.67-.1,7q0,32.27-.12,64.66v28.69c.2,7.49,1.2,14.49-.8,21.49,0-7,0-14,.23-21.4,0-2.35,0-4.74,0-7.13V712.11q.32-31.2.28-62.42c0-2.29,0-4.58.07-6.84.4-34.7.4-69.7-.44-104.28.07-2.31.06-4.63.06-7q0-20.86,0-41.75,0-3.64,0-7.23V468.3c0-4.9,0-9.79,0-14.55q-.1-5.47-.17-11t-.06-11.09c-.07-16.5-.07-33.5.11-50.66.07-4.47.07-9.08.07-13.68V160.16Z" transform="translate(34.23 14.85)"/><path d="M1407.47,902.67c0,1,0,2.78,0,5.27s0,5.61,0,9.13V941.6l-1.43-.53.08-13.28c0-4.43,0-8.86.09-13.36-1.44-9.28.56-17.28.11-26.57,0-4.35.07-8.78.09-13.2q.25-46.5.52-93l1,0c.15,16.23.3,32.46.49,52.42,2.6-41.08-2.29-96.43,3.93-127.24-1.88,52.1-.17,109.94-3.06,167.31q-.36,7.19-.82,14.33C1408.2,893.27,1407.85,898,1407.47,902.67Z" transform="translate(34.23 14.85)"/><path d="M1557.1,174.73l.47,11.21c.15,3.59.3,7.1.45,10.64s.31,7.19.47,11.12.34,8.06.53,12.6c.28-41,.51-74.72.74-108.46.49.52,1,1,1.48,1.54q-.73,61.69-1.46,123.4c0,2.28-.06,4.57-.19,6.85-1.82,24.52,1.18,50.52-.82,75.52-3-26-1-52-1.72-77.71,0-2.17,0-4.33,0-6.5V221.86c0-2.21,0-4.42,0-6.66-.34-9-.34-18,0-26.75V174.73Z" transform="translate(34.23 14.85)"/><path d="M226.91,265l.24-41.61c0-2,.07-4.09.12-6.17-2.5-41.11,3.5-83.11-.5-124.11-1-16,2-34,0-51-1,15,3,31-3,46,6-23-2-46,1.62-69.39,0-2.22,0-4.4,0-6.58L225.05-14l1.34-.81q.72,13.53,1.23,27.2c.09,2.28.17,4.56.17,6.9-2,23.9,1,48.9,1,71.9,1,42-1,84-.84,126.38-.08,2.06-.12,4.05-.16,6Q227.35,244.3,226.91,265Z" transform="translate(34.23 14.85)"/><path d="M1364.56-13.39l.61,71.94c0,2.18,0,4.36-.14,6.56.74,5-1.26,10-1.26,15,2-4,0-9,1.83-13.46a60.69,60.69,0,0,0,.37-6.12V-6.15l1.27.66-.36,65.27a72.67,72.67,0,0,1-.47,7.31,42.51,42.51,0,0,0-.64,24.06c2,14,4,27,.8,41.16-.11,2.42-.12,4.84-.13,7.25q-.33,58-.64,116.05l-.39.1q-.45-59.4-.89-118.8c0-2.33,0-4.65.2-7,0-3.8,2-8.8,2-12.8-2-17-6-33-3.13-50.09.18-2.34.32-4.69.3-7q-.26-34.95-.52-69.89Z" transform="translate(34.23 14.85)"/><path d="M201,653.2c2.76-21.05-1.24-42.05.48-62.63V542.05c.28-8.9,4.28-16.9,2.28-25.9-3-15-5-29-2.71-43.28.26-2.41.39-4.76.43-7.08V438.06c0-2.31,0-4.62,0-7,.25-13.92.25-26.92.25-40.92,2,14,0,27,1.19,41.16.06,2.3.11,4.6.17,6.9q.35,13.8.67,27.6a39,39,0,0,1-.6,7.2c-2.43,14.14-.43,26.14,3.57,40.14,2,9-1,18-2.13,27.45,0,2.1,0,4.19,0,6.29-.12,14.68-.4,29.39-.74,44.11-.05,2.34-.18,4.61-.29,6.88-.8,19.27-.8,37.27-1.74,56.49Z" transform="translate(34.23 14.85)"/><path d="M989.58,503.3c.19,3.85.19,6.85.19,10.85-1-4,2-7,1-11-3,27,3,54,.25,80.87-.12,2.37-.15,4.71-.15,7v55.44c-.06,2.36-.11,4.71-.18,7.07.08,13.61.08,28.61.08,42.61-3-14,0-29-1.3-43.1.07-2.37.11-4.72.15-7.06v-55.3c2.15-26.54-1.85-53.54-.29-80.82Q989.44,506.57,989.58,503.3Z" transform="translate(34.23 14.85)"/><path d="M1682.23,674.07c1.54,13.08-.46,26.08-.46,39.08-1,19,4,38,.77,58.31-.06,2.33-.06,4.66-.06,7v83.87c0,2.33-.07,4.66-.16,7-2.55,18.84,1.45,36.84.45,55.84,1-19-3-37-1.34-55.79,0-2.33.07-4.66,0-7-.49-27.93-1-55.87-1-83.82,0-2.33,0-4.66,0-7,1.3-30.42-1.7-60.42,1.83-90.57Q1682.26,677.54,1682.23,674.07Z" transform="translate(34.23 14.85)"/><path d="M1248.48-3.55v65c-.13,2.41-.19,4.83-.27,7.28-.44,19.43,1.56,38.43.44,57.71-.08,2.41-.13,4.81-.17,7.22V256.41c-.32.57-.63,1.14-.94,1.71q-1.26-58.37-2.53-116.74c.38-1.21.76-2.41,1.15-3.61.26,4.09.52,8.19,1.32,20.75V136.43c0-2.42.07-4.82.14-7.21,1.15-23.07-2.85-46.07-.14-68.88V-5.06C1247.81-4.56,1248.14-4,1248.48-3.55Z" transform="translate(34.23 14.85)"/><path d="M1611.72,590.32V625c0,2.32-.08,4.66-.18,7,.23,42.12,1.23,83.12.29,124.85-.1,2.31-.11,4.63-.11,6.94V777.7c-5,21.45,5,41.45-1,62.45,3-21-4-42-.56-62.86v-14c0-2.32,0-4.65.13-7,.43-42.21-.57-83.21-.23-125.62.1-2.36.1-4.69.1-7V588.82Z" transform="translate(34.23 14.85)"/><path d="M558.36,606.55c.41-26.4-1.59-51.4-.55-77.14.05-2.33.05-4.65.05-7s.06-4.64.15-7c1.76-45.32-2.24-90.32-.24-135.32,1-43-3-85,0-128.33,0-2.08,0-4.14,0-6.2s0-4.11,0-6.17c.11-4.9.11-9.79.11-14.67l1.09-1.14q0,6.63,0,13.26c-.12,2.23-.21,4.45-.27,6.68s-.11,4.47-.15,6.72q-1.17,73.27.22,146.85c0,40,0,82,.37,123v6.55c0,2.19-.07,4.37-.16,6.55-1.21,23.94.79,48.94.73,72.68Z" transform="translate(34.23 14.85)"/><path d="M1804.92,246.7c.23-24.69.46-49.39.69-73.93l.07-7.35c4.09-27.27-1.91-53.27.23-80,.23-2.46.42-4.86.59-7.17.24-26.25.48-52.06.72-77.23.4,20.74.65,43.26.78,66,0,1.52,0,3,0,4.55-2.25,22.61,1.75,44.61.75,66.61a165.09,165.09,0,0,1-.93,21.28c0,1.39-.09,2.75-.1,4.08C1807.25,204.83,1806.28,237.21,1804.92,246.7Z" transform="translate(34.23 14.85)"/><path d="M1504.43,442.7c.34,34.45.34,68.45.43,102.14,0,2.23,0,4.38,0,6.54s0,4.33,0,6.5v57.6c0,2.4,0,4.8-.07,7.25-1,26.42,2,53.42-1,79.42,0-26,0-53,0-79.5.06-2.46.06-4.86.06-7.27V557.64l0-6.46c0-2.16,0-4.36.07-6.59-.15-34.44-.15-68.44-.46-102.36Z" transform="translate(34.23 14.85)"/><path d="M746,341.55c0,2.35-.08,4.68-.11,6.94s-.06,4.53-.1,6.78c-.08,4.52-.14,9.13-.19,13.74q-.22,17.79-.43,35.57c0,2,0,4-.07,5.92-1.28,57.65-.28,114.65-.88,172.61,0,2-.14,4-.36,6a43.31,43.31,0,0,1-1,6c0-3.34,0-6.67,0-10,1-61,0-122,.77-182.54l0-6.78.15-27.1.07-14.05c0-2.3,0-4.61.09-7s.12-4.83.18-7.33C744.71,340.77,745.32,341.17,746,341.55Z" transform="translate(34.23 14.85)"/><path d="M1647.28,426.56V398.93c1.49-22.78-.51-46.78-.08-70,.08-2.36.08-4.71.08-7.07V307.74c0-2.36,0-4.72.1-7.08-.61-47.51-1.61-94.51-.1-143V143.35l1.18.49V158c.31,47.19-.69,94.19.16,141.22-.09,2.36-.16,4.71-.16,7.06v14.13c0,2.35,0,4.7,0,7.06-2.68,23.72,1.32,46.72,0,70.6q0,3.53,0,7.06t0,7.06A96.17,96.17,0,0,1,1647.28,426.56Z" transform="translate(34.23 14.85)"/><path d="M212.61,100.62a64.83,64.83,0,0,1,5.16,31.53c0-12-5-23-6-35,0-14,8-29,6-44,2,15-5,30-3,45,1,7,7,14,6,21-2,43-2,86-2.42,129.11,0,2.06,0,4.06,0,6.06v12L218.16,253c0-2.22,0-4.5,0-6.82.61-43-1.39-85,.61-128,1-5-2-10-4.87-14.12A34.73,34.73,0,0,1,212.61,100.62Z" transform="translate(34.23 14.85)"/><path d="M995.86,434.69c-.09-8.54-.09-18.54-.11-27.62.21-3.75.25-7.5.2-11.23-.2-14.92-1.87-29.4-.61-44.24l0-6.93q-.25-41.57-.5-83.14c0-2.31,0-4.55,0-6.77,0-6.61,0-13.61-.17-20.86,0-2.39,0-4.7,0-7l-.17-27.72,1.19-.68.14,20.78,0,6.93c0,12,0,23,.27,34.73,0,2.21,0,4.52,0,6.83q.25,38.1.52,76.19l0,6.93c.11,18.27.11,37.27.49,55.55,0,2.24,0,4.5-.07,6.73a187.92,187.92,0,0,0,.15,20.84C996.77,434.24,996.31,434.48,995.86,434.69Z" transform="translate(34.23 14.85)"/><path d="M1874.33,665.49c-5.07-52.9-2.85-115.35-2.7-175.08Z" transform="translate(34.23 14.85)"/><path d="M88.17,722.45q0-3.62,0-7.23c2.27-14.53,1.41-29.05.44-43.53q-.19-3.11-.41-6.2c.52-68.34,1.52-135.34.52-203.34,5,66-1,133,.56,199.36,0,2.25,0,4.5,0,6.75.31,15.75.69,31.61-.06,47.33,0,2.4,0,4.81,0,7.22Z" transform="translate(34.23 14.85)"/><path d="M1425.87,638.86c-.1,18.29-.1,37.29.11,55.69,0,2.28,0,4.59-.06,6.87q.27,24.66.55,49.31c0,2.35,0,4.7,0,7.1.25,16.32.25,33.32.63,49.33,0,2.28,0,4.63,0,7q.36,31.7.71,63.4l-1.11,1q-.37-31.63-.76-63.28l-.08-7c-.17-16.07-.17-33.07-.61-49.18,0-2.39,0-4.73-.06-7.07q-.29-24.62-.58-49.22c0-2.32,0-4.63,0-6.91.07-18.69-1.93-36.69-.14-55.58C1425,639.8,1425.44,639.33,1425.87,638.86Z" transform="translate(34.23 14.85)"/><path d="M157.43,840.25V716.32c0-2.29,0-4.59.08-6.88,3.26-21.29-2.74-41.29.26-62.29,0,21,4,41,.74,62.4-.07,2.3-.07,4.6-.07,6.91V840.7Z" transform="translate(34.23 14.85)"/><path d="M603.05-7.69V195.69C600.93,128.16,600.18,61.54,603.05-7.69Z" transform="translate(34.23 14.85)"/><path d="M887.23-9.6q.24,27.6.47,55.22l.12,13.8c-1.05,18.73.95,36.73.64,55.41-.06,4.48-.1,9-.06,13.62l.24,27.61L887,157.47l-.24-28c0-4.66-.08-9.33,0-13.86,1-19.46-1-37.46-.58-56.12l-.12-14q-.24-28-.47-56Z" transform="translate(34.23 14.85)"/><path d="M801.44,333.09q.1-7.06.38-14.12l.08-13.77,1-158.3c0-2.29,0-4.59,0-6.88l1.36.7-.06,6.81-.78,157c0,4.55,0,9.1-.15,13.7s-.24,9.26-.31,13.92Z" transform="translate(34.23 14.85)"/><path d="M1256,484.9c-.18-8.75-.18-16.75-.42-26.2q-.21-6.54-.4-13.07c-.24-8.71-.43-17.39-.47-26q-.11-6.24-.2-12.42c-.11-8.24-.19-16.43-.2-24.63s.07-16.34.2-24.72c0-2.09.07-4.2.17-6.31,3.14-21.41-.86-42.41,1.14-63.41-1,20,3,41,.41,60.52-.09,2.16-.15,4.31-.15,6.46v62.71c0,4.53-.17,9.05-.29,13.56,0,6.37,0,13.06.11,19.82,0,3.38.1,6.79.19,10.18-.27,5.75-.27,10.75,0,16.83C1256,480.45,1256,482.68,1256,484.9Z" transform="translate(34.23 14.85)"/><path d="M1216.06,452.05c0,3.34-.11,6.6-.19,9.82s-.07,6.35,0,9.5.08,6.36.15,9.65q-.23,7.17-.23,14.35v6.45a33,33,0,0,1-1,6.79,32.42,32.42,0,0,0-1,6.54c-1,35,7,69,2.25,103.93a42.4,42.4,0,0,0-.27,5.39l-.66.68a45.58,45.58,0,0,1,.21-5.35c3.47-34.65-1.53-68.65-2.07-104,.1-2.07.29-4.15.59-6.25a60,60,0,0,1,1.24-6.31c0-2.14,0-4.28,0-6.41,0-4.76,0-9.51.18-14.26a90.35,90.35,0,0,0,1.11-14.35c0-1.61-.05-3.21-.1-4.82-.51-3.22-.51-6.22-.81-9.54C1215.67,453.23,1215.87,452.64,1216.06,452.05Z" transform="translate(34.23 14.85)"/><path d="M1782.45,393.34V516.67l1,.59V432.61l.85.3V554C1781.16,522.49,1780.61,486.09,1782.45,393.34Z" transform="translate(34.23 14.85)"/><path d="M776,155.6l.91,133.94.09,13.39c-1.19,13.22,1.81,27.22-1.19,40.22,0-13,0-26-.29-39.38l-.09-13.42-.88-134.26Z" transform="translate(34.23 14.85)"/><path d="M668.5,804.86c.27,9.29.27,18.29.49,27.27,0,2.24-.06,4.48-.09,6.74s-.06,4.52,0,6.82c-3.08,23.46,2.92,47.46.24,70.21,0,1.91.11,3.83.18,5.74.44,11.51.88,23,.25,34.53-.07,4.55,0,9.15,0,13.75q.15,27.6.29,55.21l-1.11.53L668.32,970,668.23,956c1.78-13.22.35-26-.37-38.87a49.67,49.67,0,0,1,0-5.33c1.87-22.68-3.13-44.68-.39-67.21,0-2.32,0-4.6,0-6.87s.06-4.53.07-6.79c.17-8.81.17-18.81-.51-27.56Z" transform="translate(34.23 14.85)"/><path d="M287.27,267.48l0,7c0,2.32,0,4.65-.07,7-2.47,27.73,3.53,55.73.78,83.62-.06,2.33-.1,4.66-.15,7l.2,34.86c0,4.64-.13,9.28-.22,13.92-1.08,19.34,2.92,37.34-.08,56.34,0-21-2-42-1.24-63.46.06-4.26,0-8.51,0-12.76q-.15-12.76-.25-25.57,0-3.32,0-6.63c.15-2.21.21-4.42.26-6.63,1.32-7,.32-15,.32-22,1-19-4-39-.75-57.85q.15-3.35.15-6.67V269Z" transform="translate(34.23 14.85)"/><path d="M1298.05,716.32V658.87c-.28-14.72-.28-28.72-.06-43.25,0-2.32,0-4.68,0-7s0-4.75,0-7.22c3.68-34.2-2.32-69.2.83-103,.11-2.29.15-4.59.19-6.89a477.93,477.93,0,0,0-1.34-48.3c.58,15.45.82,30.91.9,46.36q0,3.32,0,6.62c.08,35,.08,71,.09,105.69,0,2.42,0,4.82,0,7.2s0,4.75,0,7.08c0,14,0,29,0,43.36v57.62Z" transform="translate(34.23 14.85)"/><path d="M1001.15,157.86V136.34c.11-2.39.17-4.78.29-7.1.33-26.09-1.67-53.09-.29-79V-14.27l.81.37V50.52c0,2.39-.08,4.71-.14,7-1.05,23.6,1.95,47.6.44,71.8-.12,2.31-.2,4.67-.3,7.06v21.48Z" transform="translate(34.23 14.85)"/><path d="M1736,551.26l.51,93.71c0,2.41,0,4.81,0,7.12.22,12.06.22,24.06.33,35.88,0,2.53-.07,5.06-.05,7.46q.24,43.26.47,86.5l-1.25.64q-.19-39.57-.38-79.15l0-7.2c.13-14.07.13-29.07-.31-43.38.06-2.25.08-4.59.07-7q-.21-46.77-.44-93.54Z" transform="translate(34.23 14.85)"/><path d="M687.53,168.22q.09-6.63.14-13.33c1.1-22.74-1.9-44.74-.36-67.83.16-4.55.18-9.11.2-13.66.09-18.21.44-36.39,1.41-54.34V74.47c0,4.55-.06,9.07-.21,13.58.06,22.1,1.06,45.1.21,67.07v13.32Z" transform="translate(34.23 14.85)"/><path d="M1329.42,53.41V67c0,2.27-.07,4.56-.16,6.86-.49,18.26,1.51,36.26.27,54.54-.06,2.21-.11,4.44-.11,6.71v61.31c-.65,6.7-.65,13.7-.65,20.7-3-7,1-13-.35-20.17,0-2.23,0-4.49,0-6.76q-.14-27.21-.25-54.43c0-2.26,0-4.53,0-6.73,2.54-19.91-1.46-40.91-.35-61.3l0-6.8,0-6.8Z" transform="translate(34.23 14.85)"/><path d="M58.91,509.72c-.14,21.43,2.86,43.43.2,64.45l0,6.4L59,593.37c0,2.14,0,4.27-.16,6.35-5.06,22.43,3.94,43.43-.61,65.59a36.18,36.18,0,0,0-.25,6.83c.46,13.14,1.12,26.26.44,39.52-.08,2.46-.14,4.89-.22,7.33l-.14,21.6-.92-.38.11-21.62c.1-2.46.16-4.89.24-7.35,1-10.87.64-21.9.16-33-.09-2.22-.2-4.43-.3-6.64,2.43-25.5-3.57-52.5.52-78.81l0-6.41,0-6.41c0-2.13,0-4.27.08-6.45,2.77-21.42-.23-43.42-.38-64.35Z" transform="translate(34.23 14.85)"/><path d="M-19.78,529.86c-.45-9.71-.45-18.71,0-28.51.11-4.76.11-9.42.11-14.09V375.2l1.86.57q-.3,56.39-.59,112.76c0,4.69-.05,9.39-.21,14.19a88.22,88.22,0,0,0,0,28.64Z" transform="translate(34.23 14.85)"/><path d="M1014,586.63c-.27-38.48-.27-75.48-.42-113.14V445.21c0-4.71,0-9.42.08-14a67.63,67.63,0,0,0,.31-9.27c0-1.57-.09-3.16-.13-4.74-1.11-5,1.89-9,.89-14,0,3,0,6,.12,9.21-.12,3.19-.14,6.38-.15,9.54s0,6.27-.07,9.28c-.1,4.63-.1,9.34-.1,14.05v28.28c.2,37.64.2,75.64.39,113.14Z" transform="translate(34.23 14.85)"/><path d="M1050.72,471l.23,28.19c0,2.35,0,4.7,0,7.05-.1,22.17.48,44.38.87,66.56l.12,6.66c-2.16,24.7,3.84,50.7-1.16,75.7,2-23-3-45-.17-68,0-2.35,0-4.57-.08-6.79-.48-24.39-1.36-48.88-.74-73.43.07-2.36.06-4.72,0-7.07l-.13-28.23Z" transform="translate(34.23 14.85)"/><path d="M1356,494.12c-2.25,33-.25,66-1.41,99.47l0,6.85-.1,13.79,0,6.94c-.66,21-.66,43-.42,64.18,0,2.4,0,4.83-.07,7.27l0,7.38c-.13-2.51-.26-5-.37-7.49s-.21-5-.3-7.43c-.45-18.93-.45-37.93-.6-57.29.05-2.39.09-4.72.12-7q.21-12.88.51-25.53c0-2.11.1-4.22.2-6.25,1.32-31.82,1.32-62.82.71-95.16C1354.77,493.93,1355.39,494,1356,494.12Z" transform="translate(34.23 14.85)"/><path d="M1278.45,723.32l.16-20.94c.06-2.38.1-4.76.16-7.15.5-25.54.25-51.06.25-76.57,0-2.32.07-4.64.16-7,2.59-22.55-1.41-46.55,1.59-69.55,0,23,0,47,.09,70q-.15,3.52-.15,7c-.07,25.75-.19,51.5-.43,77,0,2.39-.07,4.75-.1,7.11l-.09,21Z" transform="translate(34.23 14.85)"/><path d="M1179.75,164.9c-.21,17.13-.42,33.53-.62,49.51l-.09,6.83c-.27,12.91-.27,26.91-.5,40.21l-.08,6.63-.09,6.62-1.71-2.22q0-6.71-.05-13.56c0-2.29-.06-4.58-.08-6.85a181.8,181.8,0,0,0-.32-20.87q0-3.48-.07-7C1176,203.42,1176.54,182.93,1179.75,164.9Z" transform="translate(34.23 14.85)"/><path d="M21.53,219.12V456c-.36-77.35-.74-157.21-1.11-237.07Z" transform="translate(34.23 14.85)"/><path d="M1583.68,341.15c4.11,30.64,2.87,64.25,2.25,96.72-.09,4.64-.17,9.26-.21,13.84-1,5.44,3,10.44-2,14.44,0-4,0-9,.44-13.19l-.07-13.54C1584,407.76,1583.84,375.59,1583.68,341.15Z" transform="translate(34.23 14.85)"/><path d="M283.06,910.51v75.06l.86.56.42-56.14.54.16v105c-.55-11.32-.76-15.51-1.26-25.92-.33,11.84-.55,19.51-.76,27.18-.18-.32-.35-.64-.53-1V912.54Z" transform="translate(34.23 14.85)"/><path d="M1486.74-7.27q1.17,71.61,2.33,143.22l-1.44,2.36L1485-4.17Z" transform="translate(34.23 14.85)"/><path d="M-33.72,310.86v143l-.51-.64V310Z" transform="translate(34.23 14.85)"/><path d="M719.56,420.84c-.79-11.69.21-22.69.12-34.34.1-1.91.12-3.81.14-5.71l0-5.7c.9-10.94,1.9-20.94,1.9-31.94,1-21-5-42-1.65-62.77q.07-2.91.22-5.83t.39-5.85l.08-9.5.07-9.5,1.12.4,0,9.41-.05,9.4c0,1.94,0,3.86,0,5.78s0,3.84-.08,5.74c0,9.72-3,18.72-2,28.72,4,22,3,43,1.64,65.07l0,5.64c0,1.88,0,3.76-.09,5.64-1.52,10.65-.52,22.65-.09,33.85Z" transform="translate(34.23 14.85)"/><path d="M934.36,701.35c-1.59-19.2-.59-38.2,0-57.26V629.7c0-2.4,0-4.79,0-7.26.37-45.29.37-91.29-.23-136.59.08-2.4.19-4.81.19-7.2v-7.2l.94,0v6.69c0,2.24-.07,4.47-.16,6.7.63,45.28.63,89.28.21,133.83,0,2.3-.05,4.59-.05,6.82v20.09a347.1,347.1,0,0,0,0,56.31Z" transform="translate(34.23 14.85)"/><path d="M985.46,1015V996c0-2.1.07-4.17.15-6.23,1.16-20.66-2.84-42.66.3-63.19.11-1.94.19-3.87.23-5.81.45-19.32-2.13-38.42-.92-57.22.16-2.26.21-4.53.24-6.8v-6.88l1.37-.24v6.83c0,2.26-.05,4.52-.2,6.75-2.39,19.08,1.38,38.23,1,57.14,0,1.89-.12,3.78-.25,5.66-2.62,23.1,1.38,46.1-.56,68.89v18.8Z" transform="translate(34.23 14.85)"/><path d="M517.28,331.37c2.49-29.22-1.51-58.22-.16-87.58,0-1.87-.06-3.73-.07-5.59s0-3.72,0-5.57c.13-4.79.18-9.51.18-14.21V206.67c2.51-7.52-1.49-15.52,0-23.61,0-1.88,0-3.8,0-5.76V133.89c0-4.68,0-9.43,0-14.16V91.54l.5,0v28.29q0,7.19,0,14.24c0,4.69,0,9.33,0,14v29.46c0,2,0,3.91,0,5.83,0,7.73,0,15.73,0,23.63v11.79q0,7.07-.2,14.26c0,1.9,0,3.8.05,5.68s0,3.77,0,5.64c-2.89,28.73,3.11,58.73,0,87.75C517.54,331.9,517.42,331.63,517.28,331.37Z" transform="translate(34.23 14.85)"/><path d="M95.87,534.6c1.9,42.55-.1,86.55,1.09,129.91.07,2,.14,3.94.19,5.91.28,9.85.33,19.73-.38,29.73,0-11.25-.52-22.68-1-34.13-.07-2.31-.14-4.62-.17-6.94-1.8-40.93.2-81.93-1.42-122.8C94.73,535.73,95.3,535.17,95.87,534.6Z" transform="translate(34.23 14.85)"/><path d="M1679.27,619.32l.78-124.56.09-13.84c.63-8.77.63-18.77.63-27.77,0,9,0,19,.13,27.85V620.1Z" transform="translate(34.23 14.85)"/><path d="M334.17,1052.56q.52-71.19,1.06-142.38l.74.47v142.5Z" transform="translate(34.23 14.85)"/><path d="M1444.29,341.46c-1.52-47.31,2.48-93.31,1.9-140.18,0-2.27.1-4.54.2-6.74l.5-35,.88.82-.4,35.57c-.07,2.25-.12,4.56-.15,6.87-.45,9.33-.45,19.33-.15,28.43,0,2.43-.08,4.86-.13,7.29s-.09,4.83-.12,7.2,0,4.74-.14,7.16c1.09,31.25-.91,61.25-.79,92.29Z" transform="translate(34.23 14.85)"/><path d="M1153.47,531q0,3.27,0,6.54c-1.73,32.64-.73,65.64-1.62,98.72,0,2.12-.07,4.27-.1,6.41s0,4.34,0,6.51c-.34-2.17-.62-4.34-.87-6.51s-.44-4.32-.59-6.47c-1.54-33,2.46-66,2-98.89-.09-2.2-.2-4.39-.36-6.58Z" transform="translate(34.23 14.85)"/><path d="M595.22,802.31l.18,24.53.1,12.26c-.73,25,.27,50,.53,75.48.13,3.59.25,7.18.31,10.78s.07,7.21,0,10.81c0,2.16,0,4.38,0,6.61q.13,16.71.26,33.44l-1.22.84q-.14-16.71-.26-33.44c0-2.23,0-4.46,0-6.64q-.16-10.69-.24-21.45c0-3.58.1-7.16.18-10.73.77-21.65-3.23-42.65-.73-64.85l-.09-12.27q-.09-12.25-.19-24.52Z" transform="translate(34.23 14.85)"/><path d="M1557.78,977q.12-16.83.23-33.67l0-6.74c3.72-22.42-2.28-45.42.26-67.35.1-2.24.16-4.49.23-6.73l.09-13.47,0-6.73c1.09-9.14-1.91-18.14,1.09-27.14,0,9,0,18-.37,27.05v20.34c-.06,2.26-.11,4.52-.19,6.77-.44,22.84,1.56,44.84.19,67.85v40.7Z" transform="translate(34.23 14.85)"/><path d="M162.59,449.36c.18-20.21-.82-40.21,2.18-60.21,3,24,0,49,1,73v13.86c0,2.31,0,4.62-.06,6.93-3,21.17,3,42.17,0,63.17,0-21-2-41-.71-62,.08-2.3.08-4.58.08-6.87V463.53c0-2.29.06-4.61.13-6.94-.5-12.44,2.5-24.44-1.5-35.44,0,11,0,21-.16,31.76Z" transform="translate(34.23 14.85)"/><path d="M727.67,726.77V684q.15-28.25,0-57.05v-33c-.9-26.79,2.1-54.79-.9-81.79,5,27,1,55,1.64,81.51v18.66c0,4.74,0,9.48-.06,14.3-.58,18.53,1.42,37.53.06,56.79v42.65Z" transform="translate(34.23 14.85)"/><path d="M323.67,665.15V641.82q.15-15.41,0-31.1v-18c-.9-14.61,2.1-29.87-.9-44.59,5,14.72,1,30,1.64,44.43v10.17c0,2.59,0,5.17-.06,7.8-.58,10.1,1.42,20.46.06,31v23.25Z" transform="translate(34.23 14.85)"/><path d="M1106.67,257.15V233.82q.15-15.4,0-31.1v-18c-.9-14.61,2.1-29.87-.9-44.59,5,14.72,1,30,1.64,44.43v10.17c0,2.59,0,5.17-.06,7.8-.58,10.1,1.42,20.46.06,31v23.25Z" transform="translate(34.23 14.85)"/><path d="M1270.15-5.93l.66,47.43c0,2.26,0,4.52-.07,6.78,0,26.87,2,54.87,1.38,81.41,0,2.19,0,4.4,0,6.66q.13,10.16.28,20.32l-1.72,1.28-.16-20.43c0-2.27,0-4.54,0-6.76,1.27-26.61-.73-54.61-.87-81.75.07-2.28.15-4.56.13-6.83l-.38-47.67Z" transform="translate(34.23 14.85)"/><path d="M1418,345.26v25.09c0,4.18,0,8.36-.14,12.55-1.1,21.25,1.9,41.25.31,62.72-.16,4.19-.17,8.37-.17,12.55,0,2.35,0,4.71,0,7-.25,3.79-.28,7.54-.21,11.27,0,1.86.06,3.64.09,5.39a373,373,0,0,1,.39,39.4c-.2,2.66-.26,5.12-.26,7.47l-.87,0c1.63-17.64-.37-34.64-.43-52.35,0-1.87,0-3.74,0-5.62s.13-3.78.25-5.68c.13-2.21.13-4.56.13-6.91V452c0-2.09.09-4.18.16-6.27.47-20.54-1.53-41.54-.3-62.71.07-2.1.11-4.19.14-6.29V345.33Z" transform="translate(34.23 14.85)"/><path d="M848.32,898.15c-.55-16.33-.55-33.3-.44-49.54q0-5.42.09-10.85c.06-2.3.06-4.54.06-6.8V716.17c.12-2.23.18-4.47.25-6.71,1.49-4.33-.51-9.32,1.49-13.31,0,4,1,9-.6,13.3-.13,4.52-.24,9-.24,13.59V832c0,2.39-.07,4.85-.13,7.32,0,2.06,0,4.13,0,6.21s0,4.15-.08,6.18c.06,15.1.06,29.08.49,44.43Z" transform="translate(34.23 14.85)"/><path d="M471.28,539.75c.05,4.66.07,9.35,0,14.1s-.07,9.43-.07,14v96.93c-1.48,10.33,1.52,19.33-.48,29.33,0-9,0-19,0-28.14V569.87c0-4.58,0-9.18.07-13.9s0-9.39,0-14C471,541.21,471.13,540.48,471.28,539.75Z" transform="translate(34.23 14.85)"/><path d="M1185.86,425c-1.09,9.16,1.91,17.16.93,25.85,0,1.66,0,3.33,0,5.05s-.08,3.45-.19,5.19-.28,3.49-.53,5.25c-.71,25.2.19,50.45.7,75.65l.12,6.87c-.1,32.3-1.1,64.3-1.1,96.3,0-32,0-65,0-97.15,0-2.3,0-4.61,0-6.91q0-38-.07-75.87c0-1.74.06-3.5.06-5.26s0-3.51,0-5.27,0-3.49,0-5.18c0-8.36,0-17.36-.43-25.84Z" transform="translate(34.23 14.85)"/><path d="M450,1048.18V921l.84-.19V1050.3Z" transform="translate(34.23 14.85)"/><path d="M481.61,734.63c.16,8.52.16,18.52.27,27.46-.13,4.59-.27,9.16-.27,13.73v68.52c.16,20.81.16,40.81.1,61.64-.06,2.28-.1,4.59-.1,6.87v13.71l-.87.05v-13.7c0-2.28,0-4.6.09-6.92-.06-20.84-.06-40.84-.18-61.65,0-2.25.06-4.52.09-6.79V775.9c0-4.57.13-9.14.26-13.71-.23-9-.23-18-.26-27.4Z" transform="translate(34.23 14.85)"/></g></g></g></g></svg>